<mxfile host="65bd71144e">
    <diagram id="PF_2WnwpUfOVSyYf-QL7" name="My Robot">
        <mxGraphModel dx="455" dy="817" grid="1" gridSize="10" guides="1" tooltips="1" connect="1" arrows="1" fold="1" page="1" pageScale="1" pageWidth="827" pageHeight="1169" math="0" shadow="0">
            <root>
                <mxCell id="0"/>
                <mxCell id="1" parent="0"/>
                <mxCell id="ezffgj6LvAau9jyZiaGe-6" style="edgeStyle=none;html=1;" parent="1" source="2" target="3" edge="1">
                    <mxGeometry relative="1" as="geometry"/>
                </mxCell>
                <mxCell id="2" value="Perception&lt;br&gt;&quot; detecting the world around us&quot;" style="whiteSpace=wrap;html=1;" parent="1" vertex="1">
                    <mxGeometry x="200" y="150" width="120" height="60" as="geometry"/>
                </mxCell>
                <mxCell id="ezffgj6LvAau9jyZiaGe-7" style="edgeStyle=none;html=1;" parent="1" source="3" target="4" edge="1">
                    <mxGeometry relative="1" as="geometry"/>
                </mxCell>
                <mxCell id="3" value="Localization&lt;br&gt;&quot;where am i?&quot;" style="whiteSpace=wrap;html=1;" parent="1" vertex="1">
                    <mxGeometry x="200" y="230" width="120" height="60" as="geometry"/>
                </mxCell>
                <mxCell id="ezffgj6LvAau9jyZiaGe-5" style="edgeStyle=none;html=1;" parent="1" source="4" target="ezffgj6LvAau9jyZiaGe-4" edge="1">
                    <mxGeometry relative="1" as="geometry"/>
                </mxCell>
                <mxCell id="4" value="Motion Planning&lt;br&gt;&quot;How the robot Move&quot;" style="whiteSpace=wrap;html=1;" parent="1" vertex="1">
                    <mxGeometry x="200" y="310" width="120" height="60" as="geometry"/>
                </mxCell>
                <mxCell id="ezffgj6LvAau9jyZiaGe-4" value="Contorl&lt;br&gt;&quot;How to make all four wheels move&quot;" style="whiteSpace=wrap;html=1;" parent="1" vertex="1">
                    <mxGeometry x="200" y="400" width="120" height="60" as="geometry"/>
                </mxCell>
                <mxCell id="5" value="SLAM&lt;br&gt;( Mapping Process)" style="whiteSpace=wrap;html=1;" vertex="1" parent="1">
                    <mxGeometry x="320" y="230" width="120" height="60" as="geometry"/>
                </mxCell>
                <mxCell id="6" value="Nav2" style="whiteSpace=wrap;html=1;" vertex="1" parent="1">
                    <mxGeometry x="320" y="310" width="120" height="60" as="geometry"/>
                </mxCell>
            </root>
        </mxGraphModel>
    </diagram>
    <diagram id="C1aeST-4ceSu-4d_Buxe" name="architecture">
        <mxGraphModel dx="816" dy="1021" grid="1" gridSize="10" guides="1" tooltips="1" connect="1" arrows="1" fold="1" page="1" pageScale="1" pageWidth="827" pageHeight="1169" math="0" shadow="0">
            <root>
                <mxCell id="0"/>
                <mxCell id="1" parent="0"/>
                <mxCell id="mjR94pMttBALPimoCF6j-53" value="&lt;b&gt;&lt;font style=&quot;font-size: 19px;&quot;&gt;T5/Mission Architecture (Updated: 15/08/2022)&lt;/font&gt;&lt;/b&gt;" style="rounded=0;whiteSpace=wrap;html=1;fontSize=18;verticalAlign=top;spacingTop=3;" vertex="1" parent="1">
                    <mxGeometry x="910" y="590" width="1180" height="540" as="geometry"/>
                </mxCell>
                <mxCell id="mjR94pMttBALPimoCF6j-65" value="&lt;font style=&quot;font-size: 18px;&quot;&gt;TaskExecutor&lt;/font&gt;" style="rounded=0;whiteSpace=wrap;html=1;fontSize=19;verticalAlign=top;fillColor=#fff2cc;strokeColor=#d6b656;" vertex="1" parent="1">
                    <mxGeometry x="1820" y="700" width="220" height="410" as="geometry"/>
                </mxCell>
                <mxCell id="mjR94pMttBALPimoCF6j-130" value="&lt;font style=&quot;font-size: 18px;&quot;&gt;RSE&lt;/font&gt;" style="rounded=0;whiteSpace=wrap;html=1;fontSize=19;verticalAlign=top;fillColor=#fff2cc;strokeColor=#d6b656;" vertex="1" parent="1">
                    <mxGeometry x="1830" y="840" width="200" height="250" as="geometry"/>
                </mxCell>
                <mxCell id="mjR94pMttBALPimoCF6j-58" value="&lt;b&gt;Mission Planner&lt;/b&gt;" style="rounded=0;whiteSpace=wrap;html=1;fontSize=19;verticalAlign=top;" vertex="1" parent="1">
                    <mxGeometry x="1046" y="650" width="734" height="330" as="geometry"/>
                </mxCell>
                <mxCell id="mjR94pMttBALPimoCF6j-52" value="" style="whiteSpace=wrap;html=1;" vertex="1" parent="1">
                    <mxGeometry x="300" y="30" width="640" height="110" as="geometry"/>
                </mxCell>
                <mxCell id="mjR94pMttBALPimoCF6j-1" value="" style="whiteSpace=wrap;html=1;" vertex="1" parent="1">
                    <mxGeometry x="300" y="150" width="640" height="110" as="geometry"/>
                </mxCell>
                <mxCell id="mjR94pMttBALPimoCF6j-136" style="edgeStyle=none;html=1;entryX=0;entryY=0.5;entryDx=0;entryDy=0;" edge="1" parent="1" source="nj7GDEfnF_cHgjjLbckF-1" target="mjR94pMttBALPimoCF6j-1">
                    <mxGeometry relative="1" as="geometry"/>
                </mxCell>
                <mxCell id="nj7GDEfnF_cHgjjLbckF-1" value="TCMS" style="whiteSpace=wrap;html=1;" vertex="1" parent="1">
                    <mxGeometry x="30" y="175" width="120" height="60" as="geometry"/>
                </mxCell>
                <mxCell id="mjR94pMttBALPimoCF6j-45" style="edgeStyle=none;html=1;entryX=0;entryY=0.5;entryDx=0;entryDy=0;" edge="1" parent="1" source="nj7GDEfnF_cHgjjLbckF-2" target="mjR94pMttBALPimoCF6j-2">
                    <mxGeometry relative="1" as="geometry"/>
                </mxCell>
                <mxCell id="TeJ7p7LZkKr-ZLqphjWQ-1" value="/Task" style="edgeLabel;html=1;align=center;verticalAlign=middle;resizable=0;points=[];" vertex="1" connectable="0" parent="mjR94pMttBALPimoCF6j-45">
                    <mxGeometry x="-0.2591" y="1" relative="1" as="geometry">
                        <mxPoint x="10" y="-14" as="offset"/>
                    </mxGeometry>
                </mxCell>
                <mxCell id="nj7GDEfnF_cHgjjLbckF-2" value="TCMS INTERPRETER" style="whiteSpace=wrap;html=1;" vertex="1" parent="1">
                    <mxGeometry x="310" y="160" width="140" height="90" as="geometry"/>
                </mxCell>
                <mxCell id="mjR94pMttBALPimoCF6j-44" style="edgeStyle=none;html=1;" edge="1" parent="1" source="nj7GDEfnF_cHgjjLbckF-3" target="mjR94pMttBALPimoCF6j-43">
                    <mxGeometry relative="1" as="geometry"/>
                </mxCell>
                <mxCell id="nj7GDEfnF_cHgjjLbckF-3" value="&lt;b&gt;MissionPlanner&lt;/b&gt;&lt;br&gt;- Backend Interface&lt;br&gt;- Task Listener&lt;br&gt;- Task Manager&lt;br&gt;- Events publisher" style="whiteSpace=wrap;html=1;" vertex="1" parent="1">
                    <mxGeometry x="309" y="45" width="141" height="80" as="geometry"/>
                </mxCell>
                <mxCell id="mjR94pMttBALPimoCF6j-47" style="edgeStyle=none;html=1;entryX=0;entryY=0.5;entryDx=0;entryDy=0;" edge="1" parent="1" source="mjR94pMttBALPimoCF6j-2" target="mjR94pMttBALPimoCF6j-46">
                    <mxGeometry relative="1" as="geometry"/>
                </mxCell>
                <mxCell id="mjR94pMttBALPimoCF6j-2" value="TaskExecutor" style="whiteSpace=wrap;html=1;" vertex="1" parent="1">
                    <mxGeometry x="507" y="160" width="140" height="90" as="geometry"/>
                </mxCell>
                <mxCell id="mjR94pMttBALPimoCF6j-4" value="&lt;b&gt;&lt;font style=&quot;font-size: 19px;&quot;&gt;FMCS/Mission Architecture (Updated: 14/06/2022)&lt;/font&gt;&lt;/b&gt;" style="rounded=0;whiteSpace=wrap;html=1;fontSize=18;verticalAlign=top;spacingTop=3;" vertex="1" parent="1">
                    <mxGeometry x="30" y="590" width="870" height="540" as="geometry"/>
                </mxCell>
                <mxCell id="mjR94pMttBALPimoCF6j-5" value="" style="rounded=0;whiteSpace=wrap;html=1;fontSize=14;verticalAlign=top;fillColor=#fff2cc;strokeColor=#d6b656;" vertex="1" parent="1">
                    <mxGeometry x="370" y="1018" width="284" height="80" as="geometry"/>
                </mxCell>
                <mxCell id="mjR94pMttBALPimoCF6j-6" value="" style="edgeStyle=orthogonalEdgeStyle;rounded=0;orthogonalLoop=1;jettySize=auto;html=1;dashed=1;dashPattern=1 1;opacity=20;" edge="1" parent="1" target="mjR94pMttBALPimoCF6j-25">
                    <mxGeometry relative="1" as="geometry">
                        <mxPoint x="772.4800000000002" y="1018" as="sourcePoint"/>
                    </mxGeometry>
                </mxCell>
                <mxCell id="mjR94pMttBALPimoCF6j-7" value="" style="rounded=0;whiteSpace=wrap;html=1;fontSize=14;verticalAlign=top;fillColor=#fff2cc;strokeColor=#d6b656;" vertex="1" parent="1">
                    <mxGeometry x="660" y="1018" width="201" height="80" as="geometry"/>
                </mxCell>
                <mxCell id="mjR94pMttBALPimoCF6j-8" value="&lt;b&gt;&lt;font style=&quot;font-size: 19px;&quot;&gt;Robot&lt;br&gt;&lt;div style=&quot;text-align: center;&quot;&gt;&lt;b style=&quot;background-color: initial; font-size: 14px;&quot;&gt;&lt;font style=&quot;font-size: 19px;&quot;&gt;Cmd&lt;/font&gt;&lt;/b&gt;&lt;/div&gt;&lt;/font&gt;&lt;/b&gt;" style="rounded=0;whiteSpace=wrap;html=1;fontSize=14;verticalAlign=middle;align=left;spacingLeft=14;fillColor=#fff2cc;strokeColor=#d6b656;" vertex="1" parent="1">
                    <mxGeometry x="105" y="1018" width="270" height="80" as="geometry"/>
                </mxCell>
                <mxCell id="mjR94pMttBALPimoCF6j-9" value="&lt;b&gt;Mission Planner&lt;/b&gt;" style="rounded=0;whiteSpace=wrap;html=1;fontSize=19;verticalAlign=top;" vertex="1" parent="1">
                    <mxGeometry x="166" y="650" width="714" height="330" as="geometry"/>
                </mxCell>
                <mxCell id="mjR94pMttBALPimoCF6j-10" value="&lt;b&gt;&lt;font style=&quot;font-size: 19px;&quot;&gt;FMCS&lt;/font&gt;&lt;/b&gt;" style="rounded=0;whiteSpace=wrap;html=1;fillColor=#dae8fc;strokeColor=#6c8ebf;" vertex="1" parent="1">
                    <mxGeometry x="38" y="816" width="120" height="50" as="geometry"/>
                </mxCell>
                <mxCell id="mjR94pMttBALPimoCF6j-11" value="&lt;font style=&quot;font-size: 18px;&quot;&gt;Backend Interface&lt;/font&gt;" style="rounded=0;whiteSpace=wrap;html=1;fontSize=19;verticalAlign=top;fillColor=#fff2cc;strokeColor=#d6b656;" vertex="1" parent="1">
                    <mxGeometry x="181" y="700" width="210" height="260" as="geometry"/>
                </mxCell>
                <mxCell id="mjR94pMttBALPimoCF6j-12" value="Patch" style="edgeStyle=orthogonalEdgeStyle;rounded=0;orthogonalLoop=1;jettySize=auto;html=1;exitX=0;exitY=0.75;exitDx=0;exitDy=0;fontSize=13;entryX=0.598;entryY=-0.004;entryDx=0;entryDy=0;entryPerimeter=0;" edge="1" parent="1" source="mjR94pMttBALPimoCF6j-13" target="mjR94pMttBALPimoCF6j-10">
                    <mxGeometry relative="1" as="geometry">
                        <mxPoint x="110" y="810" as="targetPoint"/>
                        <Array as="points">
                            <mxPoint x="110" y="792"/>
                        </Array>
                    </mxGeometry>
                </mxCell>
                <mxCell id="mjR94pMttBALPimoCF6j-13" value="&lt;font style=&quot;font-size: 18px;&quot;&gt;Backend Interface&lt;/font&gt;" style="rounded=0;whiteSpace=wrap;html=1;fontSize=19;fillColor=#e1d5e7;strokeColor=#9673a6;" vertex="1" parent="1">
                    <mxGeometry x="201" y="750" width="170" height="56" as="geometry"/>
                </mxCell>
                <mxCell id="mjR94pMttBALPimoCF6j-14" value="Update" style="edgeStyle=orthogonalEdgeStyle;rounded=0;orthogonalLoop=1;jettySize=auto;html=1;exitX=0;exitY=0.5;exitDx=0;exitDy=0;entryX=0.5;entryY=1;entryDx=0;entryDy=0;fontSize=13;startArrow=none;startFill=0;endArrow=classic;endFill=1;" edge="1" parent="1" source="mjR94pMttBALPimoCF6j-15" target="mjR94pMttBALPimoCF6j-10">
                    <mxGeometry relative="1" as="geometry"/>
                </mxCell>
                <mxCell id="mjR94pMttBALPimoCF6j-15" value="&lt;font style=&quot;font-size: 18px;&quot;&gt;Events Publisher&lt;/font&gt;" style="rounded=0;whiteSpace=wrap;html=1;fontSize=19;fillColor=#e1d5e7;strokeColor=#9673a6;" vertex="1" parent="1">
                    <mxGeometry x="201" y="870" width="170" height="57" as="geometry"/>
                </mxCell>
                <mxCell id="mjR94pMttBALPimoCF6j-16" value="&lt;font style=&quot;font-size: 18px;&quot;&gt;Task Manager&lt;/font&gt;" style="rounded=0;whiteSpace=wrap;html=1;fontSize=19;verticalAlign=top;fillColor=#fff2cc;strokeColor=#d6b656;" vertex="1" parent="1">
                    <mxGeometry x="423" y="700" width="210" height="260" as="geometry"/>
                </mxCell>
                <mxCell id="mjR94pMttBALPimoCF6j-17" style="edgeStyle=orthogonalEdgeStyle;rounded=0;orthogonalLoop=1;jettySize=auto;html=1;exitX=1;exitY=0.5;exitDx=0;exitDy=0;fontSize=13;startArrow=none;startFill=0;" edge="1" parent="1">
                    <mxGeometry relative="1" as="geometry">
                        <mxPoint x="328" y="1019" as="targetPoint"/>
                        <Array as="points">
                            <mxPoint x="623" y="779"/>
                            <mxPoint x="623" y="1000"/>
                            <mxPoint x="328" y="1000"/>
                            <mxPoint x="328" y="1018"/>
                        </Array>
                        <mxPoint x="609" y="778.5" as="sourcePoint"/>
                    </mxGeometry>
                </mxCell>
                <mxCell id="mjR94pMttBALPimoCF6j-18" value="&lt;font style=&quot;font-size: 13px;&quot;&gt;Direct Cmd (through Publisher)&lt;/font&gt;" style="edgeLabel;html=1;align=center;verticalAlign=middle;resizable=0;points=[];fontSize=13;" vertex="1" connectable="0" parent="mjR94pMttBALPimoCF6j-17">
                    <mxGeometry x="-0.6391" y="-1" relative="1" as="geometry">
                        <mxPoint x="-132" y="136" as="offset"/>
                    </mxGeometry>
                </mxCell>
                <mxCell id="mjR94pMttBALPimoCF6j-19" value="&lt;font style=&quot;font-size: 13px;&quot;&gt;Queue Cmd&lt;/font&gt;" style="edgeStyle=orthogonalEdgeStyle;rounded=0;orthogonalLoop=1;jettySize=auto;html=1;" edge="1" parent="1" source="mjR94pMttBALPimoCF6j-21" target="mjR94pMttBALPimoCF6j-22">
                    <mxGeometry relative="1" as="geometry">
                        <Array as="points">
                            <mxPoint x="528" y="870"/>
                            <mxPoint x="528" y="870"/>
                        </Array>
                    </mxGeometry>
                </mxCell>
                <mxCell id="mjR94pMttBALPimoCF6j-20" value="&lt;font style=&quot;font-size: 12px;&quot;&gt;Update Command Status&lt;/font&gt;" style="edgeStyle=orthogonalEdgeStyle;rounded=0;orthogonalLoop=1;jettySize=auto;html=1;fontSize=13;exitX=0.083;exitY=0.993;exitDx=0;exitDy=0;exitPerimeter=0;" edge="1" parent="1" source="mjR94pMttBALPimoCF6j-21" target="mjR94pMttBALPimoCF6j-13">
                    <mxGeometry x="0.1066" relative="1" as="geometry">
                        <mxPoint x="410" y="840" as="sourcePoint"/>
                        <Array as="points">
                            <mxPoint x="480" y="807"/>
                            <mxPoint x="480" y="840"/>
                            <mxPoint x="286" y="840"/>
                        </Array>
                        <mxPoint as="offset"/>
                    </mxGeometry>
                </mxCell>
                <mxCell id="mjR94pMttBALPimoCF6j-21" value="&lt;font style=&quot;font-size: 18px;&quot;&gt;Task Listener&lt;/font&gt;" style="rounded=0;whiteSpace=wrap;html=1;fontSize=19;fillColor=#e1d5e7;strokeColor=#9673a6;" vertex="1" parent="1">
                    <mxGeometry x="443" y="750" width="170" height="57" as="geometry"/>
                </mxCell>
                <mxCell id="mjR94pMttBALPimoCF6j-22" value="&lt;font style=&quot;font-size: 18px;&quot;&gt;Task Manager&lt;/font&gt;" style="rounded=0;whiteSpace=wrap;html=1;fontSize=19;fillColor=#e1d5e7;strokeColor=#9673a6;" vertex="1" parent="1">
                    <mxGeometry x="443" y="871" width="170" height="56" as="geometry"/>
                </mxCell>
                <mxCell id="mjR94pMttBALPimoCF6j-23" value="&lt;font style=&quot;font-size: 18px;&quot;&gt;BT Mission Planner&lt;/font&gt;" style="rounded=0;whiteSpace=wrap;html=1;fontSize=19;verticalAlign=top;fillColor=#fff2cc;strokeColor=#d6b656;" vertex="1" parent="1">
                    <mxGeometry x="660" y="810" width="201" height="150" as="geometry"/>
                </mxCell>
                <mxCell id="mjR94pMttBALPimoCF6j-24" value="&lt;font style=&quot;font-size: 13px;&quot;&gt;Behavior Cmd (through Action)&lt;/font&gt;" style="edgeStyle=orthogonalEdgeStyle;rounded=0;orthogonalLoop=1;jettySize=auto;html=1;fontSize=14;startArrow=none;startFill=0;endArrow=classic;endFill=1;exitX=0.5;exitY=1;exitDx=0;exitDy=0;" edge="1" parent="1" source="mjR94pMttBALPimoCF6j-25">
                    <mxGeometry x="0.5979" relative="1" as="geometry">
                        <mxPoint as="offset"/>
                        <mxPoint x="753.9999999999998" y="1018" as="targetPoint"/>
                        <Array as="points">
                            <mxPoint x="754" y="974"/>
                            <mxPoint x="754" y="974"/>
                        </Array>
                    </mxGeometry>
                </mxCell>
                <mxCell id="mjR94pMttBALPimoCF6j-25" value="&lt;font style=&quot;font-size: 18px;&quot;&gt;Behavior Tree&lt;/font&gt;" style="rounded=0;whiteSpace=wrap;html=1;fontSize=19;fillColor=#e1d5e7;strokeColor=#9673a6;" vertex="1" parent="1">
                    <mxGeometry x="678.5" y="870" width="164" height="60" as="geometry"/>
                </mxCell>
                <mxCell id="mjR94pMttBALPimoCF6j-26" value="&lt;font style=&quot;&quot;&gt;&lt;font style=&quot;font-size: 13px;&quot;&gt;New&lt;/font&gt;&lt;br&gt;&lt;/font&gt;" style="edgeStyle=orthogonalEdgeStyle;rounded=0;orthogonalLoop=1;jettySize=auto;html=1;exitX=1;exitY=0.5;exitDx=0;exitDy=0;entryX=-0.005;entryY=0.534;entryDx=0;entryDy=0;fontSize=19;entryPerimeter=0;" edge="1" parent="1" source="mjR94pMttBALPimoCF6j-13" target="mjR94pMttBALPimoCF6j-21">
                    <mxGeometry x="0.0115" y="13" relative="1" as="geometry">
                        <Array as="points">
                            <mxPoint x="371" y="780"/>
                            <mxPoint x="430" y="780"/>
                        </Array>
                        <mxPoint as="offset"/>
                    </mxGeometry>
                </mxCell>
                <mxCell id="mjR94pMttBALPimoCF6j-27" style="edgeStyle=orthogonalEdgeStyle;rounded=0;orthogonalLoop=1;jettySize=auto;html=1;exitX=1;exitY=0.5;exitDx=0;exitDy=0;fontSize=14;startArrow=none;startFill=0;endArrow=classic;endFill=1;entryX=1;entryY=0.5;entryDx=0;entryDy=0;" edge="1" parent="1" source="mjR94pMttBALPimoCF6j-28" target="mjR94pMttBALPimoCF6j-25">
                    <mxGeometry relative="1" as="geometry">
                        <Array as="points">
                            <mxPoint x="860" y="770"/>
                            <mxPoint x="869" y="770"/>
                            <mxPoint x="869" y="900"/>
                        </Array>
                        <mxPoint x="850" y="900" as="targetPoint"/>
                    </mxGeometry>
                </mxCell>
                <mxCell id="mjR94pMttBALPimoCF6j-28" value="&lt;font style=&quot;font-size: 18px;&quot;&gt;Waypoint Controller&lt;/font&gt;" style="rounded=0;whiteSpace=wrap;html=1;fontSize=19;fillColor=#fff2cc;strokeColor=#d6b656;" vertex="1" parent="1">
                    <mxGeometry x="660" y="750" width="200" height="50" as="geometry"/>
                </mxCell>
                <mxCell id="mjR94pMttBALPimoCF6j-29" value="Light" style="rounded=0;whiteSpace=wrap;html=1;fontSize=14;" vertex="1" parent="1">
                    <mxGeometry x="281" y="1037" width="80" height="40" as="geometry"/>
                </mxCell>
                <mxCell id="mjR94pMttBALPimoCF6j-30" value="Sound Comm" style="rounded=0;whiteSpace=wrap;html=1;fontSize=14;" vertex="1" parent="1">
                    <mxGeometry x="190" y="1037" width="80" height="40" as="geometry"/>
                </mxCell>
                <mxCell id="mjR94pMttBALPimoCF6j-31" value="Manual Drive" style="rounded=0;whiteSpace=wrap;html=1;fontSize=14;" vertex="1" parent="1">
                    <mxGeometry x="386" y="1038" width="80" height="40" as="geometry"/>
                </mxCell>
                <mxCell id="mjR94pMttBALPimoCF6j-32" value="Hatch" style="rounded=0;whiteSpace=wrap;html=1;fontSize=14;" vertex="1" parent="1">
                    <mxGeometry x="477" y="1037" width="80" height="40" as="geometry"/>
                </mxCell>
                <mxCell id="mjR94pMttBALPimoCF6j-33" value="&lt;font style=&quot;font-size: 12px;&quot;&gt;Pause, Cancel, Stop&lt;/font&gt;" style="rounded=0;whiteSpace=wrap;html=1;fontSize=14;" vertex="1" parent="1">
                    <mxGeometry x="567" y="1037" width="80" height="40" as="geometry"/>
                </mxCell>
                <mxCell id="mjR94pMttBALPimoCF6j-34" value="&lt;font style=&quot;font-size: 14px;&quot;&gt;Navigate&lt;/font&gt;" style="rounded=0;whiteSpace=wrap;html=1;fontSize=14;" vertex="1" parent="1">
                    <mxGeometry x="674" y="1038" width="80" height="40" as="geometry"/>
                </mxCell>
                <mxCell id="mjR94pMttBALPimoCF6j-35" value="&lt;font style=&quot;font-size: 14px;&quot;&gt;Delivery (TBC)&lt;/font&gt;" style="rounded=0;whiteSpace=wrap;html=1;fontSize=14;" vertex="1" parent="1">
                    <mxGeometry x="766" y="1037" width="80" height="40" as="geometry"/>
                </mxCell>
                <mxCell id="mjR94pMttBALPimoCF6j-36" value="&lt;font style=&quot;font-size: 13px;&quot;&gt;Robot State&lt;/font&gt;" style="edgeStyle=orthogonalEdgeStyle;rounded=0;orthogonalLoop=1;jettySize=auto;html=1;fontSize=19;startArrow=none;startFill=0;endArrow=classic;endFill=1;" edge="1" parent="1">
                    <mxGeometry x="-0.6382" relative="1" as="geometry">
                        <Array as="points">
                            <mxPoint x="265" y="1018"/>
                        </Array>
                        <mxPoint as="offset"/>
                        <mxPoint x="265" y="1018" as="sourcePoint"/>
                        <mxPoint x="265" y="927" as="targetPoint"/>
                    </mxGeometry>
                </mxCell>
                <mxCell id="mjR94pMttBALPimoCF6j-37" value="Get" style="edgeStyle=orthogonalEdgeStyle;rounded=0;orthogonalLoop=1;jettySize=auto;html=1;exitX=0.5;exitY=0;exitDx=0;exitDy=0;fontSize=13;startArrow=none;startFill=0;endArrow=classic;endFill=1;" edge="1" parent="1" source="mjR94pMttBALPimoCF6j-10" target="mjR94pMttBALPimoCF6j-13">
                    <mxGeometry relative="1" as="geometry">
                        <mxPoint x="200" y="770" as="targetPoint"/>
                        <Array as="points">
                            <mxPoint x="98" y="770"/>
                        </Array>
                    </mxGeometry>
                </mxCell>
                <mxCell id="mjR94pMttBALPimoCF6j-38" value="Action&lt;br&gt;Cmd" style="edgeStyle=orthogonalEdgeStyle;rounded=0;orthogonalLoop=1;jettySize=auto;html=1;fontSize=13;exitX=1;exitY=0.75;exitDx=0;exitDy=0;" edge="1" parent="1" source="mjR94pMttBALPimoCF6j-22">
                    <mxGeometry x="0.1142" y="-19" relative="1" as="geometry">
                        <mxPoint as="offset"/>
                        <mxPoint x="610" y="913" as="sourcePoint"/>
                        <mxPoint x="680" y="910" as="targetPoint"/>
                        <Array as="points">
                            <mxPoint x="613" y="910"/>
                            <mxPoint x="678" y="910"/>
                        </Array>
                    </mxGeometry>
                </mxCell>
                <mxCell id="mjR94pMttBALPimoCF6j-39" value="" style="endArrow=none;html=1;rounded=0;fontSize=13;" edge="1" parent="1">
                    <mxGeometry width="50" height="50" relative="1" as="geometry">
                        <mxPoint x="480" y="870" as="sourcePoint"/>
                        <mxPoint x="480" y="830" as="targetPoint"/>
                    </mxGeometry>
                </mxCell>
                <mxCell id="mjR94pMttBALPimoCF6j-40" value="&lt;span style=&quot;font-size: 13px;&quot;&gt;Pub&lt;br&gt;Cmd&lt;br&gt;&lt;/span&gt;" style="edgeStyle=orthogonalEdgeStyle;rounded=0;orthogonalLoop=1;jettySize=auto;html=1;exitX=1;exitY=0.5;exitDx=0;exitDy=0;entryX=0.003;entryY=0.343;entryDx=0;entryDy=0;entryPerimeter=0;" edge="1" parent="1" source="mjR94pMttBALPimoCF6j-21" target="mjR94pMttBALPimoCF6j-25">
                    <mxGeometry x="0.6341" y="19" relative="1" as="geometry">
                        <Array as="points">
                            <mxPoint x="623" y="779"/>
                            <mxPoint x="623" y="890"/>
                            <mxPoint x="679" y="890"/>
                        </Array>
                        <mxPoint as="offset"/>
                    </mxGeometry>
                </mxCell>
                <mxCell id="mjR94pMttBALPimoCF6j-41" value="(Direct to individual drivers)" style="text;html=1;strokeColor=none;fillColor=none;align=center;verticalAlign=middle;whiteSpace=wrap;rounded=0;" vertex="1" parent="1">
                    <mxGeometry x="192" y="1075" width="171" height="30" as="geometry"/>
                </mxCell>
                <mxCell id="mjR94pMttBALPimoCF6j-42" value="(Direct to behavior tree)" style="text;html=1;strokeColor=none;fillColor=none;align=center;verticalAlign=middle;whiteSpace=wrap;rounded=0;" vertex="1" parent="1">
                    <mxGeometry x="423" y="1075" width="171" height="30" as="geometry"/>
                </mxCell>
                <mxCell id="mjR94pMttBALPimoCF6j-50" style="edgeStyle=none;html=1;" edge="1" parent="1" source="mjR94pMttBALPimoCF6j-43" target="mjR94pMttBALPimoCF6j-49">
                    <mxGeometry relative="1" as="geometry"/>
                </mxCell>
                <mxCell id="mjR94pMttBALPimoCF6j-51" value="Need to traceout" style="edgeLabel;html=1;align=center;verticalAlign=middle;resizable=0;points=[];" vertex="1" connectable="0" parent="mjR94pMttBALPimoCF6j-50">
                    <mxGeometry x="0.1886" y="-1" relative="1" as="geometry">
                        <mxPoint x="-25" y="19" as="offset"/>
                    </mxGeometry>
                </mxCell>
                <mxCell id="mjR94pMttBALPimoCF6j-43" value="BT" style="whiteSpace=wrap;html=1;" vertex="1" parent="1">
                    <mxGeometry x="514" y="45" width="140" height="80" as="geometry"/>
                </mxCell>
                <mxCell id="mjR94pMttBALPimoCF6j-46" value="- Nav Executor&lt;br&gt;- Immediate Executor&lt;br&gt;- Lifter Executor" style="whiteSpace=wrap;html=1;" vertex="1" parent="1">
                    <mxGeometry x="800" y="160" width="122.5" height="90" as="geometry"/>
                </mxCell>
                <mxCell id="mjR94pMttBALPimoCF6j-49" value="&lt;br&gt;?&amp;nbsp;" style="whiteSpace=wrap;html=1;" vertex="1" parent="1">
                    <mxGeometry x="780" y="45" width="142.5" height="80" as="geometry"/>
                </mxCell>
                <mxCell id="mjR94pMttBALPimoCF6j-54" value="" style="rounded=0;whiteSpace=wrap;html=1;fontSize=14;verticalAlign=top;fillColor=#fff2cc;strokeColor=#d6b656;" vertex="1" parent="1">
                    <mxGeometry x="1250" y="1018" width="284" height="80" as="geometry"/>
                </mxCell>
                <mxCell id="mjR94pMttBALPimoCF6j-55" value="" style="edgeStyle=orthogonalEdgeStyle;rounded=0;orthogonalLoop=1;jettySize=auto;html=1;dashed=1;dashPattern=1 1;opacity=20;" edge="1" parent="1">
                    <mxGeometry relative="1" as="geometry">
                        <mxPoint x="1652.4800000000002" y="1018" as="sourcePoint"/>
                        <mxPoint x="1640.5" y="930" as="targetPoint"/>
                    </mxGeometry>
                </mxCell>
                <mxCell id="mjR94pMttBALPimoCF6j-56" value="" style="rounded=0;whiteSpace=wrap;html=1;fontSize=14;verticalAlign=top;fillColor=#fff2cc;strokeColor=#d6b656;" vertex="1" parent="1">
                    <mxGeometry x="1540" y="1018" width="201" height="80" as="geometry"/>
                </mxCell>
                <mxCell id="mjR94pMttBALPimoCF6j-57" value="&lt;b&gt;&lt;font style=&quot;font-size: 19px;&quot;&gt;Robot&lt;br&gt;&lt;div style=&quot;text-align: center;&quot;&gt;&lt;b style=&quot;background-color: initial; font-size: 14px;&quot;&gt;&lt;font style=&quot;font-size: 19px;&quot;&gt;Cmd&lt;/font&gt;&lt;/b&gt;&lt;/div&gt;&lt;/font&gt;&lt;/b&gt;" style="rounded=0;whiteSpace=wrap;html=1;fontSize=14;verticalAlign=middle;align=left;spacingLeft=14;fillColor=#fff2cc;strokeColor=#d6b656;" vertex="1" parent="1">
                    <mxGeometry x="985" y="1018" width="270" height="80" as="geometry"/>
                </mxCell>
                <mxCell id="mjR94pMttBALPimoCF6j-59" value="&lt;b&gt;&lt;font style=&quot;font-size: 19px;&quot;&gt;TCMS&lt;/font&gt;&lt;/b&gt;" style="rounded=0;whiteSpace=wrap;html=1;fillColor=#dae8fc;strokeColor=#6c8ebf;" vertex="1" parent="1">
                    <mxGeometry x="918" y="816" width="120" height="50" as="geometry"/>
                </mxCell>
                <mxCell id="mjR94pMttBALPimoCF6j-60" value="&lt;font style=&quot;font-size: 18px;&quot;&gt;TCMSInterpreter&lt;/font&gt;" style="rounded=0;whiteSpace=wrap;html=1;fontSize=19;verticalAlign=top;fillColor=#fff2cc;strokeColor=#d6b656;" vertex="1" parent="1">
                    <mxGeometry x="1061" y="700" width="709" height="260" as="geometry"/>
                </mxCell>
                <mxCell id="mjR94pMttBALPimoCF6j-61" value="sendHeartbeat&lt;br&gt;XML" style="edgeStyle=orthogonalEdgeStyle;rounded=0;orthogonalLoop=1;jettySize=auto;html=1;exitX=0;exitY=0.75;exitDx=0;exitDy=0;fontSize=13;entryX=0.598;entryY=-0.004;entryDx=0;entryDy=0;entryPerimeter=0;" edge="1" parent="1" source="mjR94pMttBALPimoCF6j-62" target="mjR94pMttBALPimoCF6j-59">
                    <mxGeometry x="0.2348" y="-2" relative="1" as="geometry">
                        <mxPoint x="990" y="810" as="targetPoint"/>
                        <Array as="points">
                            <mxPoint x="990" y="792"/>
                        </Array>
                        <mxPoint as="offset"/>
                    </mxGeometry>
                </mxCell>
                <mxCell id="mjR94pMttBALPimoCF6j-113" style="edgeStyle=none;html=1;" edge="1" parent="1" source="mjR94pMttBALPimoCF6j-62" target="mjR94pMttBALPimoCF6j-112">
                    <mxGeometry relative="1" as="geometry"/>
                </mxCell>
                <mxCell id="mjR94pMttBALPimoCF6j-120" value="receive&lt;br&gt;Command" style="edgeLabel;html=1;align=center;verticalAlign=middle;resizable=0;points=[];" vertex="1" connectable="0" parent="mjR94pMttBALPimoCF6j-113">
                    <mxGeometry x="-0.1265" relative="1" as="geometry">
                        <mxPoint as="offset"/>
                    </mxGeometry>
                </mxCell>
                <mxCell id="mjR94pMttBALPimoCF6j-62" value="&lt;span style=&quot;font-size: 18px;&quot;&gt;tcmsAgvAPi&lt;/span&gt;" style="rounded=0;whiteSpace=wrap;html=1;fontSize=19;fillColor=#e1d5e7;strokeColor=#9673a6;" vertex="1" parent="1">
                    <mxGeometry x="1081" y="750" width="109" height="56" as="geometry"/>
                </mxCell>
                <mxCell id="mjR94pMttBALPimoCF6j-118" style="edgeStyle=none;html=1;" edge="1" parent="1" source="mjR94pMttBALPimoCF6j-64" target="mjR94pMttBALPimoCF6j-110">
                    <mxGeometry relative="1" as="geometry"/>
                </mxCell>
                <mxCell id="mjR94pMttBALPimoCF6j-64" value="&lt;font style=&quot;font-size: 18px;&quot;&gt;StateManager&lt;/font&gt;" style="rounded=0;whiteSpace=wrap;html=1;fontSize=19;fillColor=#e1d5e7;strokeColor=#9673a6;" vertex="1" parent="1">
                    <mxGeometry x="1400" y="900" width="170" height="57" as="geometry"/>
                </mxCell>
                <mxCell id="mjR94pMttBALPimoCF6j-78" value="Light" style="rounded=0;whiteSpace=wrap;html=1;fontSize=14;" vertex="1" parent="1">
                    <mxGeometry x="1161" y="1037" width="80" height="40" as="geometry"/>
                </mxCell>
                <mxCell id="mjR94pMttBALPimoCF6j-79" value="Sound Comm" style="rounded=0;whiteSpace=wrap;html=1;fontSize=14;" vertex="1" parent="1">
                    <mxGeometry x="1070" y="1037" width="80" height="40" as="geometry"/>
                </mxCell>
                <mxCell id="mjR94pMttBALPimoCF6j-80" value="Manual Drive" style="rounded=0;whiteSpace=wrap;html=1;fontSize=14;" vertex="1" parent="1">
                    <mxGeometry x="1266" y="1038" width="80" height="40" as="geometry"/>
                </mxCell>
                <mxCell id="mjR94pMttBALPimoCF6j-81" value="Hatch" style="rounded=0;whiteSpace=wrap;html=1;fontSize=14;" vertex="1" parent="1">
                    <mxGeometry x="1357" y="1037" width="80" height="40" as="geometry"/>
                </mxCell>
                <mxCell id="mjR94pMttBALPimoCF6j-82" value="&lt;font style=&quot;font-size: 12px;&quot;&gt;Pause, Cancel, Stop&lt;/font&gt;" style="rounded=0;whiteSpace=wrap;html=1;fontSize=14;" vertex="1" parent="1">
                    <mxGeometry x="1447" y="1037" width="80" height="40" as="geometry"/>
                </mxCell>
                <mxCell id="mjR94pMttBALPimoCF6j-83" value="&lt;font style=&quot;font-size: 14px;&quot;&gt;Navigate&lt;/font&gt;" style="rounded=0;whiteSpace=wrap;html=1;fontSize=14;" vertex="1" parent="1">
                    <mxGeometry x="1554" y="1038" width="80" height="40" as="geometry"/>
                </mxCell>
                <mxCell id="mjR94pMttBALPimoCF6j-85" value="&lt;font style=&quot;font-size: 13px;&quot;&gt;Robot State&lt;/font&gt;" style="edgeStyle=orthogonalEdgeStyle;rounded=0;orthogonalLoop=1;jettySize=auto;html=1;fontSize=19;startArrow=none;startFill=0;endArrow=classic;endFill=1;entryX=0;entryY=0.5;entryDx=0;entryDy=0;" edge="1" parent="1" target="mjR94pMttBALPimoCF6j-64">
                    <mxGeometry x="-0.6382" relative="1" as="geometry">
                        <Array as="points">
                            <mxPoint x="1140" y="1018"/>
                            <mxPoint x="1140" y="930"/>
                            <mxPoint x="1400" y="930"/>
                        </Array>
                        <mxPoint as="offset"/>
                        <mxPoint x="1145" y="1018" as="sourcePoint"/>
                        <mxPoint x="1145" y="927" as="targetPoint"/>
                    </mxGeometry>
                </mxCell>
                <mxCell id="mjR94pMttBALPimoCF6j-86" value="ReceiveCommand&lt;br&gt;XML" style="edgeStyle=orthogonalEdgeStyle;rounded=0;orthogonalLoop=1;jettySize=auto;html=1;exitX=0.5;exitY=0;exitDx=0;exitDy=0;fontSize=13;startArrow=none;startFill=0;endArrow=classic;endFill=1;" edge="1" parent="1" source="mjR94pMttBALPimoCF6j-59" target="mjR94pMttBALPimoCF6j-62">
                    <mxGeometry x="0.1592" y="30" relative="1" as="geometry">
                        <mxPoint x="1080" y="770" as="targetPoint"/>
                        <Array as="points">
                            <mxPoint x="930" y="816"/>
                            <mxPoint x="930" y="770"/>
                        </Array>
                        <mxPoint as="offset"/>
                    </mxGeometry>
                </mxCell>
                <mxCell id="mjR94pMttBALPimoCF6j-90" value="(Direct to individual drivers)" style="text;html=1;strokeColor=none;fillColor=none;align=center;verticalAlign=middle;whiteSpace=wrap;rounded=0;" vertex="1" parent="1">
                    <mxGeometry x="1072" y="1075" width="171" height="30" as="geometry"/>
                </mxCell>
                <mxCell id="mjR94pMttBALPimoCF6j-91" value="(Direct to behavior tree)" style="text;html=1;strokeColor=none;fillColor=none;align=center;verticalAlign=middle;whiteSpace=wrap;rounded=0;" vertex="1" parent="1">
                    <mxGeometry x="1303" y="1075" width="171" height="30" as="geometry"/>
                </mxCell>
                <mxCell id="mjR94pMttBALPimoCF6j-92" value="" style="whiteSpace=wrap;html=1;" vertex="1" parent="1">
                    <mxGeometry x="300" y="280" width="640" height="110" as="geometry"/>
                </mxCell>
                <mxCell id="mjR94pMttBALPimoCF6j-148" style="edgeStyle=none;html=1;entryX=0;entryY=0.5;entryDx=0;entryDy=0;" edge="1" parent="1" source="mjR94pMttBALPimoCF6j-94" target="mjR94pMttBALPimoCF6j-143">
                    <mxGeometry relative="1" as="geometry"/>
                </mxCell>
                <mxCell id="g2MWWiDzgrkI3ELSoMD4-1" value="?&lt;br&gt;Same as&amp;nbsp;&lt;br&gt;T5" style="edgeLabel;html=1;align=center;verticalAlign=middle;resizable=0;points=[];" vertex="1" connectable="0" parent="mjR94pMttBALPimoCF6j-148">
                    <mxGeometry x="0.0422" relative="1" as="geometry">
                        <mxPoint as="offset"/>
                    </mxGeometry>
                </mxCell>
                <mxCell id="mjR94pMttBALPimoCF6j-94" value="RMF INTERPRETER" style="whiteSpace=wrap;html=1;" vertex="1" parent="1">
                    <mxGeometry x="309" y="295" width="141" height="80" as="geometry"/>
                </mxCell>
                <mxCell id="mjR94pMttBALPimoCF6j-98" value="&lt;br&gt;?&amp;nbsp;" style="whiteSpace=wrap;html=1;" vertex="1" parent="1">
                    <mxGeometry x="822.5" y="295" width="100" height="80" as="geometry"/>
                </mxCell>
                <mxCell id="mjR94pMttBALPimoCF6j-106" value="&lt;font style=&quot;font-size: 18px;&quot;&gt;CommandHandler&lt;/font&gt;" style="rounded=0;whiteSpace=wrap;html=1;fontSize=19;fillColor=#e1d5e7;strokeColor=#9673a6;" vertex="1" parent="1">
                    <mxGeometry x="1590" y="787" width="170" height="56" as="geometry"/>
                </mxCell>
                <mxCell id="mjR94pMttBALPimoCF6j-71" value="&lt;font style=&quot;font-size: 18px;&quot;&gt;GraphManager&lt;/font&gt;" style="rounded=0;whiteSpace=wrap;html=1;fontSize=19;fillColor=#e1d5e7;strokeColor=#9673a6;" vertex="1" parent="1">
                    <mxGeometry x="1590" y="866" width="170" height="56" as="geometry"/>
                </mxCell>
                <mxCell id="mjR94pMttBALPimoCF6j-116" style="edgeStyle=none;html=1;entryX=0.5;entryY=1;entryDx=0;entryDy=0;exitX=-0.012;exitY=0.598;exitDx=0;exitDy=0;exitPerimeter=0;" edge="1" parent="1" source="mjR94pMttBALPimoCF6j-110" target="mjR94pMttBALPimoCF6j-62">
                    <mxGeometry relative="1" as="geometry">
                        <Array as="points">
                            <mxPoint x="1166" y="830"/>
                        </Array>
                    </mxGeometry>
                </mxCell>
                <mxCell id="mjR94pMttBALPimoCF6j-117" value="sendHeartbeat" style="edgeLabel;html=1;align=center;verticalAlign=middle;resizable=0;points=[];" vertex="1" connectable="0" parent="mjR94pMttBALPimoCF6j-116">
                    <mxGeometry x="0.1096" y="3" relative="1" as="geometry">
                        <mxPoint as="offset"/>
                    </mxGeometry>
                </mxCell>
                <mxCell id="mjR94pMttBALPimoCF6j-121" style="edgeStyle=none;html=1;" edge="1" parent="1" source="mjR94pMttBALPimoCF6j-110" target="mjR94pMttBALPimoCF6j-106">
                    <mxGeometry relative="1" as="geometry"/>
                </mxCell>
                <mxCell id="mjR94pMttBALPimoCF6j-122" style="edgeStyle=none;html=1;" edge="1" parent="1" source="mjR94pMttBALPimoCF6j-110" target="mjR94pMttBALPimoCF6j-71">
                    <mxGeometry relative="1" as="geometry"/>
                </mxCell>
                <mxCell id="mjR94pMttBALPimoCF6j-123" style="edgeStyle=none;html=1;exitX=0.982;exitY=0.167;exitDx=0;exitDy=0;exitPerimeter=0;" edge="1" parent="1" source="mjR94pMttBALPimoCF6j-110" target="mjR94pMttBALPimoCF6j-125">
                    <mxGeometry relative="1" as="geometry"/>
                </mxCell>
                <mxCell id="mjR94pMttBALPimoCF6j-124" value="/Task" style="edgeLabel;html=1;align=center;verticalAlign=middle;resizable=0;points=[];" vertex="1" connectable="0" parent="mjR94pMttBALPimoCF6j-123">
                    <mxGeometry x="0.0486" y="-1" relative="1" as="geometry">
                        <mxPoint as="offset"/>
                    </mxGeometry>
                </mxCell>
                <mxCell id="mjR94pMttBALPimoCF6j-110" value="&lt;font style=&quot;font-size: 18px;&quot;&gt;TaskManager&lt;/font&gt;" style="rounded=0;whiteSpace=wrap;html=1;fontSize=19;fillColor=#e1d5e7;strokeColor=#9673a6;" vertex="1" parent="1">
                    <mxGeometry x="1400" y="747" width="170" height="132" as="geometry"/>
                </mxCell>
                <mxCell id="mjR94pMttBALPimoCF6j-114" style="edgeStyle=none;html=1;entryX=0;entryY=0.25;entryDx=0;entryDy=0;" edge="1" parent="1" source="mjR94pMttBALPimoCF6j-112" target="mjR94pMttBALPimoCF6j-110">
                    <mxGeometry relative="1" as="geometry"/>
                </mxCell>
                <mxCell id="mjR94pMttBALPimoCF6j-112" value="&lt;font style=&quot;font-size: 18px;&quot;&gt;TCMS Interpreter&lt;/font&gt;" style="rounded=0;whiteSpace=wrap;html=1;fontSize=19;fillColor=#e1d5e7;strokeColor=#9673a6;" vertex="1" parent="1">
                    <mxGeometry x="1255" y="750" width="103" height="63" as="geometry"/>
                </mxCell>
                <mxCell id="mjR94pMttBALPimoCF6j-131" style="edgeStyle=none;html=1;entryX=0.5;entryY=0;entryDx=0;entryDy=0;" edge="1" parent="1" source="mjR94pMttBALPimoCF6j-125" target="mjR94pMttBALPimoCF6j-130">
                    <mxGeometry relative="1" as="geometry"/>
                </mxCell>
                <mxCell id="mjR94pMttBALPimoCF6j-125" value="&lt;font style=&quot;font-size: 18px;&quot;&gt;Task Executor&lt;/font&gt;" style="rounded=0;whiteSpace=wrap;html=1;fontSize=19;fillColor=#e1d5e7;strokeColor=#9673a6;" vertex="1" parent="1">
                    <mxGeometry x="1845" y="744" width="170" height="56" as="geometry"/>
                </mxCell>
                <mxCell id="mjR94pMttBALPimoCF6j-134" style="edgeStyle=none;html=1;entryX=0.75;entryY=0;entryDx=0;entryDy=0;" edge="1" parent="1" source="mjR94pMttBALPimoCF6j-127" target="mjR94pMttBALPimoCF6j-54">
                    <mxGeometry relative="1" as="geometry"/>
                </mxCell>
                <mxCell id="mjR94pMttBALPimoCF6j-127" value="&lt;font style=&quot;font-size: 18px;&quot;&gt;Lifter Executor&lt;/font&gt;" style="rounded=0;whiteSpace=wrap;html=1;fontSize=19;fillColor=#e1d5e7;strokeColor=#9673a6;" vertex="1" parent="1">
                    <mxGeometry x="1850" y="937" width="170" height="56" as="geometry"/>
                </mxCell>
                <mxCell id="mjR94pMttBALPimoCF6j-133" style="edgeStyle=none;html=1;entryX=0.5;entryY=0;entryDx=0;entryDy=0;" edge="1" parent="1" source="mjR94pMttBALPimoCF6j-128" target="mjR94pMttBALPimoCF6j-54">
                    <mxGeometry relative="1" as="geometry"/>
                </mxCell>
                <mxCell id="mjR94pMttBALPimoCF6j-128" value="&lt;font style=&quot;font-size: 18px;&quot;&gt;Immediate Executor&lt;/font&gt;" style="rounded=0;whiteSpace=wrap;html=1;fontSize=19;fillColor=#e1d5e7;strokeColor=#9673a6;" vertex="1" parent="1">
                    <mxGeometry x="1850" y="872" width="170" height="56" as="geometry"/>
                </mxCell>
                <mxCell id="mjR94pMttBALPimoCF6j-132" style="edgeStyle=none;html=1;" edge="1" parent="1" source="mjR94pMttBALPimoCF6j-129" target="mjR94pMttBALPimoCF6j-56">
                    <mxGeometry relative="1" as="geometry"/>
                </mxCell>
                <mxCell id="mjR94pMttBALPimoCF6j-129" value="&lt;span style=&quot;font-size: 18px;&quot;&gt;Nav Executor&lt;/span&gt;" style="rounded=0;whiteSpace=wrap;html=1;fontSize=19;fillColor=#e1d5e7;strokeColor=#9673a6;" vertex="1" parent="1">
                    <mxGeometry x="1850" y="1010" width="170" height="56" as="geometry"/>
                </mxCell>
                <mxCell id="mjR94pMttBALPimoCF6j-138" style="edgeStyle=none;html=1;entryX=0;entryY=0.5;entryDx=0;entryDy=0;" edge="1" parent="1" source="mjR94pMttBALPimoCF6j-137" target="mjR94pMttBALPimoCF6j-92">
                    <mxGeometry relative="1" as="geometry"/>
                </mxCell>
                <mxCell id="mjR94pMttBALPimoCF6j-137" value="RMF FleetAdapter&lt;br&gt;( Navigate , Localiza, Stop , PerformAction)" style="whiteSpace=wrap;html=1;" vertex="1" parent="1">
                    <mxGeometry x="30" y="305" width="120" height="60" as="geometry"/>
                </mxCell>
                <mxCell id="mjR94pMttBALPimoCF6j-149" style="edgeStyle=none;html=1;" edge="1" parent="1" source="mjR94pMttBALPimoCF6j-143" target="mjR94pMttBALPimoCF6j-98">
                    <mxGeometry relative="1" as="geometry"/>
                </mxCell>
                <mxCell id="mjR94pMttBALPimoCF6j-150" value="Do we use &lt;br&gt;interfaces same as&lt;br&gt;T5&lt;br&gt;or&amp;nbsp;&lt;br&gt;Camelllo&lt;br&gt;&lt;br&gt;( Hoang say think about it?)" style="edgeLabel;html=1;align=center;verticalAlign=middle;resizable=0;points=[];" vertex="1" connectable="0" parent="mjR94pMttBALPimoCF6j-149">
                    <mxGeometry x="-0.2103" y="1" relative="1" as="geometry">
                        <mxPoint x="17" y="1" as="offset"/>
                    </mxGeometry>
                </mxCell>
                <mxCell id="mjR94pMttBALPimoCF6j-143" value="Taskexecutor" style="whiteSpace=wrap;html=1;" vertex="1" parent="1">
                    <mxGeometry x="507" y="290" width="140" height="90" as="geometry"/>
                </mxCell>
                <mxCell id="mjR94pMttBALPimoCF6j-146" style="edgeStyle=none;html=1;entryX=0;entryY=0.5;entryDx=0;entryDy=0;" edge="1" parent="1" source="mjR94pMttBALPimoCF6j-145" target="mjR94pMttBALPimoCF6j-52">
                    <mxGeometry relative="1" as="geometry"/>
                </mxCell>
                <mxCell id="mjR94pMttBALPimoCF6j-145" value="FMCS" style="whiteSpace=wrap;html=1;" vertex="1" parent="1">
                    <mxGeometry x="30" y="55" width="120" height="60" as="geometry"/>
                </mxCell>
            </root>
        </mxGraphModel>
    </diagram>
    <diagram id="_efgJv8gYaNeRSTka1eR" name="camello lifter project">
        <mxGraphModel dx="653" dy="817" grid="1" gridSize="10" guides="1" tooltips="1" connect="1" arrows="1" fold="1" page="1" pageScale="1" pageWidth="827" pageHeight="1169" math="0" shadow="0">
            <root>
                <mxCell id="0"/>
                <mxCell id="1" parent="0"/>
                <mxCell id="nPQyTUn28d067tkLo0ba-1" value="" style="whiteSpace=wrap;html=1;" vertex="1" parent="1">
                    <mxGeometry x="490" y="40" width="640" height="110" as="geometry"/>
                </mxCell>
                <mxCell id="nPQyTUn28d067tkLo0ba-2" style="edgeStyle=none;html=1;entryX=0;entryY=0.5;entryDx=0;entryDy=0;" edge="1" parent="1" source="nPQyTUn28d067tkLo0ba-3" target="nPQyTUn28d067tkLo0ba-9">
                    <mxGeometry relative="1" as="geometry"/>
                </mxCell>
                <mxCell id="nPQyTUn28d067tkLo0ba-3" value="RMF INTERPRETER" style="whiteSpace=wrap;html=1;" vertex="1" parent="1">
                    <mxGeometry x="499" y="55" width="141" height="80" as="geometry"/>
                </mxCell>
                <mxCell id="nPQyTUn28d067tkLo0ba-4" value="&lt;br&gt;?&amp;nbsp;" style="whiteSpace=wrap;html=1;" vertex="1" parent="1">
                    <mxGeometry x="970" y="55" width="142.5" height="80" as="geometry"/>
                </mxCell>
                <mxCell id="nPQyTUn28d067tkLo0ba-6" value="" style="whiteSpace=wrap;html=1;" vertex="1" parent="1">
                    <mxGeometry x="20" y="40" width="310" height="240" as="geometry"/>
                </mxCell>
                <mxCell id="nPQyTUn28d067tkLo0ba-7" style="edgeStyle=none;html=1;" edge="1" parent="1" source="nPQyTUn28d067tkLo0ba-9" target="nPQyTUn28d067tkLo0ba-4">
                    <mxGeometry relative="1" as="geometry"/>
                </mxCell>
                <mxCell id="nPQyTUn28d067tkLo0ba-8" value="Do we use &lt;br&gt;interfaces same as&lt;br&gt;T5&lt;br&gt;or&amp;nbsp;&lt;br&gt;Camelllo&lt;br&gt;&lt;br&gt;( Hoang say think about it?)" style="edgeLabel;html=1;align=center;verticalAlign=middle;resizable=0;points=[];" vertex="1" connectable="0" parent="nPQyTUn28d067tkLo0ba-7">
                    <mxGeometry x="-0.2103" y="1" relative="1" as="geometry">
                        <mxPoint x="17" y="1" as="offset"/>
                    </mxGeometry>
                </mxCell>
                <mxCell id="nPQyTUn28d067tkLo0ba-9" value="Taskexecutor&lt;br&gt;????&lt;br&gt;&lt;br&gt;BT&amp;nbsp;&lt;br&gt;????" style="whiteSpace=wrap;html=1;" vertex="1" parent="1">
                    <mxGeometry x="670" y="50" width="140" height="90" as="geometry"/>
                </mxCell>
                <mxCell id="nPQyTUn28d067tkLo0ba-12" style="edgeStyle=none;html=1;entryX=0.5;entryY=1;entryDx=0;entryDy=0;" edge="1" parent="1" source="nPQyTUn28d067tkLo0ba-10" target="nPQyTUn28d067tkLo0ba-11">
                    <mxGeometry relative="1" as="geometry"/>
                </mxCell>
                <mxCell id="nPQyTUn28d067tkLo0ba-10" value="RMF Web" style="whiteSpace=wrap;html=1;" vertex="1" parent="1">
                    <mxGeometry x="30" y="170" width="130" height="95" as="geometry"/>
                </mxCell>
                <mxCell id="nPQyTUn28d067tkLo0ba-13" style="edgeStyle=none;html=1;" edge="1" parent="1" source="nPQyTUn28d067tkLo0ba-11" target="nPQyTUn28d067tkLo0ba-14">
                    <mxGeometry relative="1" as="geometry">
                        <mxPoint x="290" y="97.5" as="targetPoint"/>
                    </mxGeometry>
                </mxCell>
                <mxCell id="nPQyTUn28d067tkLo0ba-11" value="RMF Core" style="whiteSpace=wrap;html=1;" vertex="1" parent="1">
                    <mxGeometry x="30" y="50" width="130" height="95" as="geometry"/>
                </mxCell>
                <mxCell id="nPQyTUn28d067tkLo0ba-17" style="edgeStyle=none;html=1;entryX=0;entryY=0.5;entryDx=0;entryDy=0;" edge="1" parent="1" source="nPQyTUn28d067tkLo0ba-14" target="nPQyTUn28d067tkLo0ba-16">
                    <mxGeometry relative="1" as="geometry"/>
                </mxCell>
                <mxCell id="nPQyTUn28d067tkLo0ba-14" value="&lt;span style=&quot;color: rgb(0, 0, 0);&quot;&gt;RMF FleetAdapter&lt;/span&gt;&lt;br&gt;&lt;span style=&quot;color: rgb(0, 0, 0);&quot;&gt;( Navigate , Localiza, Stop , PerformAction)&lt;/span&gt;" style="whiteSpace=wrap;html=1;" vertex="1" parent="1">
                    <mxGeometry x="190" y="50" width="130" height="95" as="geometry"/>
                </mxCell>
                <mxCell id="nPQyTUn28d067tkLo0ba-18" style="edgeStyle=none;html=1;" edge="1" parent="1" source="nPQyTUn28d067tkLo0ba-16" target="nPQyTUn28d067tkLo0ba-3">
                    <mxGeometry relative="1" as="geometry"/>
                </mxCell>
                <mxCell id="nPQyTUn28d067tkLo0ba-16" value="Simplified&lt;br&gt;Otsaw-FMCS" style="whiteSpace=wrap;html=1;" vertex="1" parent="1">
                    <mxGeometry x="350" y="40" width="120" height="110" as="geometry"/>
                </mxCell>
            </root>
        </mxGraphModel>
    </diagram>
</mxfile>